<svg version="1.2" xmlns="http://www.w3.org/2000/svg" viewBox="0 0 400 400" width="500" height="500">
	<title>New Project</title>
	<style>
		.s0 { fill: #d9e75e } 
	</style>
	<path id="&amp;" class="s0" aria-label="&amp;"  d="m304 92.3c-23.2-23.2-40.6-19.9-40.6-19.9l-81.1 81.8-93.4 92.7-16.1 76.7 76.6-16.1 93.4-93.4 81.2-81.2c0 0 3.2-17.4-20-40.6zm-159.1 205.5l-25.8 5.8c-2.5-4.5-5.8-9-11.6-14.8-5.1-5.8-10.3-8.4-14.8-11l5.8-26.4 7.1-7.7c0 0 14.8 0.6 30.9 16.7 15.5 16.1 16.1 30.3 16.1 30.3z"/>
</svg>